<svg width="48" height="54" viewBox="0 0 48 54" fill="none" xmlns="http://www.w3.org/2000/svg">
<rect y="3" width="48" height="48" rx="16" fill="#FB7D5B"/>
<path d="M12.188 27.328C12.188 24.832 12.728 22.612 13.808 20.668C14.888 18.7 16.388 17.176 18.308 16.096C20.252 14.992 22.448 14.44 24.896 14.44C27.896 14.44 30.464 15.232 32.6 16.816C34.736 18.4 36.164 20.56 36.884 23.296H30.116C29.612 22.24 28.892 21.436 27.956 20.884C27.044 20.332 26 20.056 24.824 20.056C22.928 20.056 21.392 20.716 20.216 22.036C19.04 23.356 18.452 25.12 18.452 27.328C18.452 29.536 19.04 31.3 20.216 32.62C21.392 33.94 22.928 34.6 24.824 34.6C26 34.6 27.044 34.324 27.956 33.772C28.892 33.22 29.612 32.416 30.116 31.36H36.884C36.164 34.096 34.736 36.256 32.6 37.84C30.464 39.4 27.896 40.18 24.896 40.18C22.448 40.18 20.252 39.64 18.308 38.56C16.388 37.456 14.888 35.932 13.808 33.988C12.728 32.044 12.188 29.824 12.188 27.328Z" fill="white"/>
</svg>
